<svg width="913" height="68" viewBox="0 0 913 68" fill="none" xmlns="http://www.w3.org/2000/svg">
<path d="M13 41.5H1V2H13V41.5Z" fill="#FFFDFD"/>
<path d="M43 53.5H1V65.5H43V53.5Z" fill="#FFFDFD"/>
<path d="M135 2L101.5 65.5H116L135 26L144.5 44H138V57H150L154.5 65.5H168.5L135 2Z" fill="#FFFDFD"/>
<path d="M242 21.5L226 2H242L250.5 11.5L242 21.5Z" fill="#FFFDFD"/>
<path d="M242 65.5H226L277.5 2H293.5L242 65.5Z" fill="#FFFDFD"/>
<path d="M403 2H351.5V14H403V2Z" fill="#FFFDFD"/>
<path d="M383 27.5H351.5V40H383V27.5Z" fill="#FFFDFD"/>
<path d="M403 54H351.5V65.5H403V54Z" fill="#FFFDFD"/>
<path d="M474.5 2H461.5V65.5H474.5V2Z" fill="#FFFDFD"/>
<path d="M482 14V2H502.5C517.621 10.5257 522 27.5 502.5 38L517 57.5H501L477 27.5H498.5C503.227 22.4993 503.774 19.5691 498.5 14H482Z" fill="#FFFDFD"/>
<path d="M13 41.5H1V2H13V41.5Z" stroke="black"/>
<path d="M43 53.5H1V65.5H43V53.5Z" stroke="black"/>
<path d="M135 2L101.5 65.5H116L135 26L144.5 44H138V57H150L154.5 65.5H168.5L135 2Z" stroke="black"/>
<path d="M242 21.5L226 2H242L250.5 11.5L242 21.5Z" stroke="black"/>
<path d="M242 65.5H226L277.5 2H293.5L242 65.5Z" stroke="black"/>
<path d="M403 2H351.5V14H403V2Z" stroke="black"/>
<path d="M383 27.5H351.5V40H383V27.5Z" stroke="black"/>
<path d="M403 54H351.5V65.5H403V54Z" stroke="black"/>
<path d="M474.5 2H461.5V65.5H474.5V2Z" stroke="black"/>
<path d="M482 14V2H502.5C517.621 10.5257 522 27.5 502.5 38L517 57.5H501L477 27.5H498.5C503.227 22.4993 503.774 19.5691 498.5 14H482Z" stroke="black"/>
<path d="M667.5 2.5H632C627.409 4.62613 625.756 6.81271 624 12V58.5C625.887 62.9259 627.497 64.9133 632 67H667.5C674.016 64.8281 676.535 62.2488 678 54H636.5V15H665V41H678C679.163 13.7182 677.668 3.41699 667.5 2.5Z" fill="white" stroke="black"/>
<path d="M750 67H737.5V2H750L769.5 25V46.5L750 23.5V67Z" fill="white"/>
<path d="M799.5 67H786.5V2H799.5V67Z" fill="white"/>
<path d="M859.5 14V2H912V14H859.5Z" fill="white"/>
<path d="M859.5 40.5V28.5H890.5V40.5H859.5Z" fill="white"/>
<path d="M859.5 67V55.5H912V67H859.5Z" fill="white"/>
<path d="M750 67H737.5V2H750L769.5 25V46.5L750 23.5V67Z" stroke="black"/>
<path d="M799.5 67H786.5V2H799.5V67Z" stroke="black"/>
<path d="M859.5 14V2H912V14H859.5Z" stroke="black"/>
<path d="M859.5 40.5V28.5H890.5V40.5H859.5Z" stroke="black"/>
<path d="M859.5 67V55.5H912V67H859.5Z" stroke="black"/>
</svg>
